<svg width="36" height="36" viewBox="0 0 36 36" fill="none" xmlns="http://www.w3.org/2000/svg">
<path d="M21.735 21.322C24.1124 21.322 26.0396 19.3948 26.0396 17.0174C26.0396 14.6401 24.1124 12.7128 21.735 12.7128C19.3576 12.7128 17.4304 14.6401 17.4304 17.0174C17.4304 19.3948 19.3576 21.322 21.735 21.322Z" stroke="currentColor" stroke-width="1.5" stroke-linecap="round" stroke-linejoin="round"/>
<path d="M29.25 27.8794C29.2502 27.0181 29.0808 26.1652 28.7513 25.3694C28.4217 24.5736 27.9385 23.8505 27.3294 23.2414C26.7204 22.6324 25.9975 22.1494 25.2017 21.8198C24.4059 21.4903 23.5527 21.3207 22.6914 21.3208H20.6355C18.8961 21.3208 17.228 22.0118 15.998 23.2418C14.7681 24.4718 14.0769 26.14 14.0769 27.8794" stroke="currentColor" stroke-width="1.5" stroke-linecap="round" stroke-linejoin="round"/>
<path d="M12.6365 14.745C14.4658 14.745 15.9488 13.262 15.9488 11.4327C15.9488 9.60333 14.4658 8.12036 12.6365 8.12036C10.8072 8.12036 9.32422 9.60333 9.32422 11.4327C9.32422 13.262 10.8072 14.745 12.6365 14.745Z" stroke="currentColor" stroke-width="1.5" stroke-linecap="round" stroke-linejoin="round"/>
<path d="M13.3747 14.7449H11.797C10.4584 14.7449 9.17485 15.2767 8.22837 16.2232C7.2819 17.1697 6.75 18.4534 6.75 19.7919" stroke="currentColor" stroke-width="1.5" stroke-linecap="round" stroke-linejoin="round"/>
<path d="M11.2417 14.7449H12.8194C13.5481 14.7442 14.2683 14.9016 14.9302 15.2063C15.5921 15.511 16.1799 15.9558 16.6532 16.5098" stroke="currentColor" stroke-width="1.5" stroke-linecap="round" stroke-linejoin="round"/>
</svg>