<svg width="36" height="36" viewBox="0 0 36 36" fill="none" xmlns="http://www.w3.org/2000/svg">
<path d="M14.5155 10.9468H29.2501" stroke="#D6D6D6" stroke-width="1.5" stroke-linecap="round" stroke-linejoin="round"/>
<path d="M6.75 10.9468H14.2239" stroke="#D6D6D6" stroke-width="1.5" stroke-linecap="round" stroke-linejoin="round"/>
<path d="M27.1869 10.9468V26.7496C27.1869 27.4128 26.9235 28.0488 26.4546 28.5177C25.9856 28.9866 25.3496 29.25 24.6865 29.25H11.3851C10.7219 29.25 10.0859 28.9866 9.617 28.5177C9.14808 28.0488 8.88464 27.4128 8.88464 26.7496V10.9468" stroke="#D6D6D6" stroke-width="1.5" stroke-linecap="round" stroke-linejoin="round"/>
<path d="M22.6271 15.5925V24.6023" stroke="#D6D6D6" stroke-width="1.5" stroke-linecap="round" stroke-linejoin="round"/>
<path d="M13.4432 15.5925V24.6023" stroke="#D6D6D6" stroke-width="1.5" stroke-linecap="round" stroke-linejoin="round"/>
<path d="M18.0459 15.5925V24.6023" stroke="#D6D6D6" stroke-width="1.5" stroke-linecap="round" stroke-linejoin="round"/>
<path d="M21.4846 10.9467H14.5155V10.2346C14.5155 9.3104 14.8826 8.42409 15.5361 7.77061C16.1896 7.11712 17.0759 6.75 18.0001 6.75C18.9242 6.75 19.8105 7.11712 20.464 7.77061C21.1175 8.42409 21.4846 9.3104 21.4846 10.2346V10.9467Z" stroke="#D6D6D6" stroke-width="1.5" stroke-linecap="round" stroke-linejoin="round"/>
</svg>
